<svg xmlns="http://www.w3.org/2000/svg" xmlns:xlink="http://www.w3.org/1999/xlink" width="500" zoomAndPan="magnify" viewBox="0 0 375 112.499997" height="150" preserveAspectRatio="xMidYMid meet" version="1.2"><defs><clipPath id="55bb0ed81a"><path d="M 22.769531 44 L 122 44 L 122 69 L 22.769531 69 Z M 22.769531 44 "/></clipPath><clipPath id="8805a6ae44"><path d="M 27 1.335938 L 323.574219 1.335938 L 323.574219 57 L 27 57 Z M 27 1.335938 "/></clipPath><clipPath id="29780ed664"><path d="M 20.542969 80.363281 L 103.261719 80.363281 L 103.261719 95 L 20.542969 95 Z M 20.542969 80.363281 "/></clipPath></defs><g id="6551662c93"><g clip-rule="nonzero" clip-path="url(#55bb0ed81a)"><path style=" stroke:none;fill-rule:nonzero;fill:#070748;fill-opacity:1;" d="M 121.640625 63.339844 C 85.957031 66.152344 61.597656 62.808594 47.347656 59.460938 C 50.578125 59.46875 53.808594 59.378906 56.933594 59.21875 C 59.910156 59.066406 62.871094 58.851562 65.816406 58.59375 C 68.28125 58.375 72.839844 57.925781 75.585938 57.570312 C 70.078125 56.6875 64.632812 55.574219 59.289062 54.359375 C 54.546875 53.277344 49.859375 52.085938 45.335938 50.691406 C 41.710938 49.574219 38.421875 48.105469 35.078125 46.714844 C 32.28125 45.550781 28.285156 43.535156 25.1875 45.289062 C 22.785156 46.652344 22.757812 49.453125 22.964844 51.3125 C 23.546875 56.558594 31.480469 59.660156 35.660156 61.542969 C 40.757812 63.84375 46.179688 65.394531 51.664062 66.46875 C 62.953125 68.671875 74.589844 68.929688 86.046875 68.285156 C 95.199219 67.761719 104.28125 66.675781 113.292969 65.039062 C 116.011719 64.546875 118.828125 63.953125 121.640625 63.339844 Z M 121.640625 63.339844 "/></g><g clip-rule="nonzero" clip-path="url(#8805a6ae44)"><path style=" stroke:none;fill-rule:nonzero;fill:#070748;fill-opacity:1;" d="M 320.089844 36.878906 C 318.390625 36.105469 316.648438 35.375 314.867188 34.691406 C 312.765625 33.882812 310.617188 33.132812 308.425781 32.445312 C 303.011719 30.753906 297.507812 29.425781 291.914062 28.453125 C 286.222656 27.46875 280.492188 26.773438 274.730469 26.363281 C 273.285156 26.265625 271.835938 26.152344 270.390625 26.085938 L 268.214844 25.972656 L 266.042969 25.890625 C 265.316406 25.867188 264.59375 25.835938 263.867188 25.820312 L 261.695312 25.78125 C 260.242188 25.746094 258.796875 25.746094 257.34375 25.738281 C 256.621094 25.730469 255.894531 25.734375 255.171875 25.742188 L 253 25.753906 C 251.554688 25.769531 250.109375 25.800781 248.660156 25.828125 L 244.332031 25.960938 C 242.890625 26.019531 241.445312 26.070312 240.007812 26.136719 C 237.128906 26.265625 234.257812 26.414062 231.390625 26.578125 C 229.957031 26.664062 228.523438 26.75 227.09375 26.847656 L 222.800781 27.128906 C 211.367188 27.890625 199.980469 28.835938 188.625 29.785156 C 177.269531 30.734375 165.949219 31.699219 154.640625 32.5 C 148.988281 32.914062 143.339844 33.273438 137.691406 33.582031 C 132.046875 33.890625 126.40625 34.148438 120.769531 34.3125 C 115.132812 34.476562 109.5 34.59375 103.882812 34.570312 C 103.175781 34.570312 102.472656 34.578125 101.773438 34.570312 L 99.667969 34.546875 C 98.265625 34.53125 96.859375 34.53125 95.457031 34.488281 L 91.253906 34.386719 L 87.054688 34.234375 C 82.632812 34.050781 78.222656 33.792969 73.824219 33.464844 C 75.285156 32.898438 76.722656 32.316406 78.140625 31.71875 C 85.566406 28.589844 92.484375 25.117188 99.359375 21.820312 C 106.234375 18.523438 113.082031 15.390625 120.25 12.941406 C 121.148438 12.640625 122.042969 12.332031 122.949219 12.054688 C 123.402344 11.914062 123.851562 11.769531 124.308594 11.632812 L 125.683594 11.246094 C 126.601562 10.988281 127.511719 10.714844 128.449219 10.5 L 129.847656 10.152344 C 130.316406 10.039062 130.777344 9.910156 131.253906 9.816406 L 134.089844 9.199219 L 136.960938 8.667969 C 137.199219 8.625 137.4375 8.574219 137.679688 8.539062 L 138.40625 8.425781 L 139.855469 8.203125 C 140.339844 8.132812 140.824219 8.046875 141.3125 7.988281 L 142.777344 7.808594 L 144.242188 7.625 C 144.734375 7.566406 145.226562 7.527344 145.71875 7.476562 L 147.933594 7.265625 L 148.675781 7.210938 C 149.667969 7.144531 150.65625 7.066406 151.652344 7.003906 L 154.640625 6.867188 C 158.628906 6.730469 162.644531 6.769531 166.664062 6.933594 C 167.667969 6.984375 168.675781 7.019531 169.679688 7.082031 L 172.695312 7.285156 C 174.699219 7.457031 176.710938 7.628906 178.714844 7.859375 C 182.722656 8.308594 186.722656 8.851562 190.695312 9.527344 C 198.644531 10.878906 206.511719 12.613281 214.257812 14.671875 C 222.015625 16.699219 229.636719 19.0625 237.199219 21.566406 C 233.664062 19.964844 230.074219 18.433594 226.417969 16.972656 C 222.773438 15.5 219.050781 14.125 215.28125 12.816406 C 207.628906 10.15625 199.847656 7.910156 191.949219 6.078125 C 183.808594 4.191406 175.574219 2.863281 167.25 2.09375 C 163.039062 1.714844 158.792969 1.507812 154.511719 1.464844 C 150.234375 1.421875 145.941406 1.59375 141.667969 1.964844 L 140.0625 2.105469 C 139.527344 2.148438 138.996094 2.222656 138.464844 2.277344 L 136.867188 2.464844 L 136.066406 2.558594 C 135.800781 2.589844 135.535156 2.632812 135.269531 2.667969 L 132.089844 3.140625 L 128.933594 3.699219 C 128.40625 3.785156 127.886719 3.90625 127.367188 4.011719 L 125.804688 4.34375 C 124.753906 4.554688 123.730469 4.820312 122.703125 5.074219 L 121.15625 5.457031 C 120.644531 5.589844 120.140625 5.734375 119.628906 5.875 C 118.605469 6.148438 117.609375 6.453125 116.605469 6.753906 C 116.101562 6.902344 115.613281 7.066406 115.117188 7.222656 C 114.621094 7.382812 114.125 7.539062 113.632812 7.703125 C 112.664062 8.042969 111.671875 8.363281 110.714844 8.714844 L 109.269531 9.238281 L 107.84375 9.773438 C 106.886719 10.128906 105.953125 10.507812 105.011719 10.875 C 101.269531 12.371094 97.636719 13.949219 94.066406 15.550781 L 83.492188 20.339844 C 79.996094 21.914062 76.507812 23.425781 72.996094 24.84375 C 69.480469 26.253906 65.929688 27.53125 62.335938 28.652344 C 58.738281 29.761719 55.089844 30.660156 51.386719 31.351562 L 27.679688 35.757812 L 51.664062 39.320312 C 57.410156 40.171875 63.1875 40.871094 68.992188 41.414062 C 74.796875 41.957031 80.617188 42.308594 86.4375 42.5625 C 98.078125 43.039062 109.71875 42.976562 121.28125 42.527344 C 144.425781 41.640625 167.242188 39.308594 189.863281 36.820312 C 193.414062 36.429688 196.957031 36.035156 200.5 35.640625 C 195.574219 36.652344 190.664062 37.707031 185.773438 38.800781 L 168.886719 42.644531 C 163.273438 43.933594 157.652344 45.179688 152.027344 46.378906 L 147.808594 47.269531 C 146.402344 47.5625 144.996094 47.847656 143.585938 48.128906 L 139.355469 48.964844 L 137.242188 49.378906 L 135.148438 49.765625 C 129.558594 50.746094 123.894531 51.453125 118.203125 51.929688 C 106.753906 52.835938 95.296875 52.902344 83.835938 52.125 C 72.308594 51.355469 60.886719 49.84375 49.5625 47.589844 C 60.578125 51.039062 71.988281 53.414062 83.535156 54.9375 C 95.152344 56.445312 106.816406 56.949219 118.519531 56.457031 C 124.394531 56.199219 130.238281 55.640625 136.050781 54.78125 L 138.230469 54.441406 L 140.382812 54.082031 C 141.816406 53.847656 143.246094 53.59375 144.671875 53.335938 C 146.101562 53.082031 147.53125 52.820312 148.957031 52.550781 L 153.234375 51.734375 C 158.929688 50.636719 164.597656 49.421875 170.253906 48.203125 L 187.164062 44.4375 C 192.785156 43.171875 198.402344 41.929688 204.03125 40.769531 C 209.652344 39.585938 215.285156 38.507812 220.933594 37.539062 C 226.582031 36.558594 232.25 35.734375 237.9375 35.03125 L 242.207031 34.539062 L 246.480469 34.113281 L 250.765625 33.738281 L 255.054688 33.429688 L 259.351562 33.179688 L 263.65625 32.980469 C 266.535156 32.867188 269.417969 32.78125 272.292969 32.703125 C 278.050781 32.5625 283.800781 32.542969 289.539062 32.75 C 298.046875 33.03125 306.558594 33.882812 314.90625 35.652344 C 317.84375 36.507812 320.730469 37.476562 323.5625 38.550781 C 322.429688 37.972656 321.269531 37.414062 320.089844 36.878906 Z M 320.089844 36.878906 "/></g><path style=" stroke:none;fill-rule:nonzero;fill:#070748;fill-opacity:1;" d="M 250.324219 65.84375 C 251.050781 62.25 252.40625 58.90625 254.394531 55.8125 C 256.40625 52.65625 258.890625 49.921875 261.855469 47.609375 C 264.855469 45.269531 268.164062 43.488281 271.78125 42.269531 C 272.679688 41.96875 273.601562 41.734375 274.515625 41.472656 C 275.441406 41.269531 276.378906 41.09375 277.308594 40.902344 C 278.253906 40.78125 279.199219 40.679688 280.144531 40.574219 L 281.570312 40.496094 C 282.042969 40.476562 282.519531 40.480469 282.996094 40.472656 C 284.90625 40.492188 286.800781 40.660156 288.679688 40.976562 C 290.558594 41.304688 292.394531 41.785156 294.191406 42.414062 C 297.796875 43.675781 301.082031 45.5 304.050781 47.878906 C 306.984375 50.226562 309.433594 52.996094 311.402344 56.179688 C 313.34375 59.304688 314.644531 62.671875 315.3125 66.277344 C 314.566406 64.667969 313.722656 63.109375 312.78125 61.601562 C 311.855469 60.125 310.828125 58.714844 309.703125 57.378906 C 307.484375 54.734375 304.9375 52.453125 302.0625 50.53125 C 300.660156 49.59375 299.195312 48.761719 297.667969 48.035156 C 296.144531 47.3125 294.570312 46.699219 292.953125 46.203125 C 291.335938 45.707031 289.691406 45.332031 288.019531 45.074219 C 286.347656 44.816406 284.664062 44.683594 282.972656 44.671875 C 281.277344 44.660156 279.59375 44.773438 277.917969 45.007812 C 276.242188 45.242188 274.589844 45.597656 272.96875 46.070312 C 271.34375 46.546875 269.765625 47.136719 268.230469 47.839844 C 266.695312 48.546875 265.21875 49.359375 263.804688 50.28125 C 260.902344 52.164062 258.324219 54.410156 256.070312 57.023438 C 253.761719 59.710938 251.84375 62.652344 250.324219 65.84375 Z M 250.324219 65.84375 "/><g clip-rule="nonzero" clip-path="url(#29780ed664)"><path style=" stroke:none;fill-rule:nonzero;fill:#070748;fill-opacity:1;" d="M 20.601562 80.363281 C 45.746094 91.847656 66.714844 93.5 93.027344 84.207031 C 96.0625 83.179688 100.1875 81.539062 103.203125 80.363281 C 101.753906 81.453125 100.265625 82.496094 98.730469 83.472656 C 74.265625 99.164062 43.375 98.765625 20.601562 80.363281 Z M 20.601562 80.363281 "/></g><g style="fill:#ffffff;fill-opacity:1;"><g transform="translate(99.501229, 91.949251)"><path style="stroke:none" d="M 4.78125 -22.609375 L 14.921875 -22.609375 C 15.472656 -22.609375 15.75 -22.367188 15.75 -21.890625 C 15.75 -21.535156 15.679688 -21.289062 15.546875 -21.15625 C 15.410156 -21.019531 15.160156 -20.953125 14.796875 -20.953125 L 5.96875 -20.953125 L 5.078125 -12.71875 L 13.25 -12.71875 C 13.863281 -12.71875 14.171875 -12.488281 14.171875 -12.03125 C 14.171875 -11.6875 14.09375 -11.4375 13.9375 -11.28125 C 13.789062 -11.132812 13.535156 -11.0625 13.171875 -11.0625 L 4.859375 -11.0625 L 3.515625 -0.46875 C 3.453125 0.09375 3.097656 0.375 2.453125 0.375 C 1.816406 0.375 1.5 0.125 1.5 -0.375 L 4.046875 -21.703125 C 4.128906 -22.304688 4.375 -22.609375 4.78125 -22.609375 Z M 4.78125 -22.609375 "/></g></g><g style="fill:#ffffff;fill-opacity:1;"><g transform="translate(114.034642, 91.949251)"><path style="stroke:none" d="M 2.46875 0.375 C 1.820312 0.375 1.5 0.148438 1.5 -0.296875 L 1.5 -0.390625 L 4.15625 -21.921875 C 4.207031 -22.265625 4.441406 -22.460938 4.859375 -22.515625 C 6.160156 -22.785156 7.867188 -22.921875 9.984375 -22.921875 C 12.109375 -22.921875 13.78125 -22.488281 15 -21.625 C 16.226562 -20.769531 16.84375 -19.5 16.84375 -17.8125 C 16.84375 -16.394531 16.34375 -15.160156 15.34375 -14.109375 C 14.34375 -13.054688 12.976562 -12.363281 11.25 -12.03125 C 12.40625 -11.539062 13.296875 -10.597656 13.921875 -9.203125 C 14.222656 -8.492188 14.507812 -7.710938 14.78125 -6.859375 C 15.050781 -6.015625 15.222656 -5.5 15.296875 -5.3125 L 16.921875 -0.546875 C 16.941406 -0.492188 16.953125 -0.394531 16.953125 -0.25 C 16.953125 -0.101562 16.847656 0.0351562 16.640625 0.171875 C 16.441406 0.304688 16.195312 0.375 15.90625 0.375 C 15.351562 0.375 15.019531 0.179688 14.90625 -0.203125 L 13.0625 -5.625 C 12.59375 -7.03125 12.164062 -8.128906 11.78125 -8.921875 C 11.40625 -9.722656 10.957031 -10.285156 10.4375 -10.609375 C 9.925781 -10.941406 9.050781 -11.109375 7.8125 -11.109375 L 4.8125 -11.109375 L 3.5 -0.34375 C 3.457031 -0.0820312 3.359375 0.0976562 3.203125 0.203125 C 3.046875 0.316406 2.800781 0.375 2.46875 0.375 Z M 8.125 -12.859375 C 9.519531 -12.859375 10.921875 -13.222656 12.328125 -13.953125 C 13.023438 -14.316406 13.597656 -14.832031 14.046875 -15.5 C 14.492188 -16.164062 14.71875 -16.921875 14.71875 -17.765625 C 14.71875 -18.867188 14.253906 -19.734375 13.328125 -20.359375 C 12.410156 -20.992188 11.257812 -21.3125 9.875 -21.3125 C 8.5 -21.3125 7.222656 -21.207031 6.046875 -21 L 5.046875 -12.859375 Z M 8.125 -12.859375 "/></g></g><g style="fill:#ffffff;fill-opacity:1;"><g transform="translate(132.405089, 91.949251)"><path style="stroke:none" d="M 10.5625 -19.953125 L 4.78125 -7.515625 L 13.0625 -7.515625 Z M 9.375 -22.15625 C 9.601562 -22.664062 10.097656 -22.921875 10.859375 -22.921875 C 11.628906 -22.921875 12.066406 -22.664062 12.171875 -22.15625 C 15.203125 -7.59375 16.71875 -0.304688 16.71875 -0.296875 C 16.71875 0.148438 16.382812 0.375 15.71875 0.375 C 15.050781 0.375 14.664062 0.117188 14.5625 -0.390625 L 13.40625 -5.90625 L 4.015625 -5.90625 L 2.28125 -2.109375 C 2.175781 -1.828125 2.066406 -1.570312 1.953125 -1.34375 C 1.835938 -1.113281 1.742188 -0.921875 1.671875 -0.765625 C 1.609375 -0.617188 1.554688 -0.503906 1.515625 -0.421875 C 1.472656 -0.347656 1.421875 -0.257812 1.359375 -0.15625 C 1.296875 -0.0507812 1.238281 0.0234375 1.1875 0.078125 C 1.132812 0.128906 1.082031 0.179688 1.03125 0.234375 C 0.9375 0.328125 0.773438 0.375 0.546875 0.375 C 0.316406 0.375 0.078125 0.300781 -0.171875 0.15625 C -0.421875 0.0195312 -0.546875 -0.1875 -0.546875 -0.46875 C -0.546875 -0.75 -0.117188 -1.8125 0.734375 -3.65625 Z M 9.375 -22.15625 "/></g></g><g style="fill:#ffffff;fill-opacity:1;"><g transform="translate(150.801819, 91.949251)"><path style="stroke:none" d="M 3.578125 -1.03125 C 3.503906 -0.445312 3.394531 -0.0664062 3.25 0.109375 C 3.113281 0.285156 2.859375 0.375 2.484375 0.375 C 2.109375 0.375 1.847656 0.320312 1.703125 0.21875 C 1.566406 0.125 1.5 -0.015625 1.5 -0.203125 C 1.5 -0.398438 1.515625 -0.675781 1.546875 -1.03125 L 4.078125 -22.109375 C 4.140625 -22.648438 4.523438 -22.921875 5.234375 -22.921875 L 5.8125 -22.921875 C 6.375 -22.921875 6.734375 -22.703125 6.890625 -22.265625 L 14.265625 -3.65625 L 16.40625 -21.53125 C 16.457031 -22.03125 16.519531 -22.363281 16.59375 -22.53125 C 16.675781 -22.695312 16.785156 -22.800781 16.921875 -22.84375 C 17.066406 -22.894531 17.289062 -22.921875 17.59375 -22.921875 C 17.90625 -22.921875 18.128906 -22.867188 18.265625 -22.765625 C 18.398438 -22.660156 18.46875 -22.515625 18.46875 -22.328125 C 18.46875 -22.140625 18.453125 -21.875 18.421875 -21.53125 L 15.84375 -0.453125 C 15.789062 0.0976562 15.453125 0.375 14.828125 0.375 L 14.328125 0.375 C 13.742188 0.375 13.359375 0.132812 13.171875 -0.34375 L 5.734375 -19.109375 Z M 3.578125 -1.03125 "/></g></g><g style="fill:#ffffff;fill-opacity:1;"><g transform="translate(170.775422, 91.949251)"><path style="stroke:none" d="M 11.140625 -22.921875 C 13.367188 -22.921875 15.140625 -22.265625 16.453125 -20.953125 C 17.078125 -20.316406 17.390625 -19.820312 17.390625 -19.46875 C 17.390625 -19.300781 17.242188 -19.113281 16.953125 -18.90625 C 16.671875 -18.707031 16.4375 -18.609375 16.25 -18.609375 C 16.070312 -18.609375 15.863281 -18.75 15.625 -19.03125 C 15.382812 -19.3125 15.117188 -19.617188 14.828125 -19.953125 C 14.546875 -20.296875 14.070312 -20.609375 13.40625 -20.890625 C 12.738281 -21.171875 11.898438 -21.3125 10.890625 -21.3125 C 9.878906 -21.3125 8.914062 -21.015625 8 -20.421875 C 7.082031 -19.828125 6.332031 -19.066406 5.75 -18.140625 C 5.175781 -17.222656 4.6875 -16.1875 4.28125 -15.03125 C 3.5625 -12.945312 3.203125 -10.785156 3.203125 -8.546875 C 3.203125 -6.578125 3.632812 -4.925781 4.5 -3.59375 C 4.9375 -2.914062 5.535156 -2.378906 6.296875 -1.984375 C 7.054688 -1.585938 7.9375 -1.390625 8.9375 -1.390625 C 11.039062 -1.390625 12.785156 -2.144531 14.171875 -3.65625 C 14.222656 -3.707031 14.332031 -3.847656 14.5 -4.078125 C 14.820312 -4.523438 15.09375 -4.75 15.3125 -4.75 C 15.539062 -4.75 15.742188 -4.675781 15.921875 -4.53125 C 16.097656 -4.382812 16.1875 -4.222656 16.1875 -4.046875 C 16.1875 -3.867188 16.125 -3.6875 16 -3.5 C 15.195312 -2.238281 14.164062 -1.273438 12.90625 -0.609375 C 11.65625 0.046875 10.269531 0.375 8.75 0.375 C 6.101562 0.375 4.164062 -0.445312 2.9375 -2.09375 C 1.71875 -3.75 1.109375 -5.941406 1.109375 -8.671875 C 1.109375 -12.109375 1.84375 -15.242188 3.3125 -18.078125 C 4.050781 -19.535156 5.09375 -20.707031 6.4375 -21.59375 C 7.789062 -22.476562 9.359375 -22.921875 11.140625 -22.921875 Z M 11.140625 -22.921875 "/></g></g><g style="fill:#ffffff;fill-opacity:1;"><g transform="translate(188.147198, 91.949251)"><path style="stroke:none" d="M 3.515625 -0.46875 C 3.453125 0.09375 3.097656 0.375 2.453125 0.375 C 1.816406 0.375 1.5 0.125 1.5 -0.375 C 1.5 -0.425781 2.382812 -7.660156 4.15625 -22.078125 C 4.21875 -22.640625 4.570312 -22.921875 5.21875 -22.921875 C 5.875 -22.921875 6.203125 -22.707031 6.203125 -22.28125 C 6.203125 -22.226562 5.304688 -14.957031 3.515625 -0.46875 Z M 3.515625 -0.46875 "/></g></g><g style="fill:#ffffff;fill-opacity:1;"><g transform="translate(195.84755, 91.949251)"><path style="stroke:none" d="M 9.671875 -22.921875 C 10.960938 -22.921875 12.160156 -22.601562 13.265625 -21.96875 C 14.367188 -21.34375 14.921875 -20.726562 14.921875 -20.125 C 14.921875 -19.519531 14.675781 -19.21875 14.1875 -19.21875 C 13.875 -19.21875 13.332031 -19.554688 12.5625 -20.234375 C 12.257812 -20.492188 11.828125 -20.726562 11.265625 -20.9375 C 10.710938 -21.15625 10.09375 -21.265625 9.40625 -21.265625 C 8.113281 -21.265625 7.066406 -20.910156 6.265625 -20.203125 C 5.472656 -19.492188 5.078125 -18.53125 5.078125 -17.3125 C 5.078125 -16 6.09375 -14.597656 8.125 -13.109375 C 8.957031 -12.492188 9.796875 -11.851562 10.640625 -11.1875 C 11.484375 -10.53125 12.203125 -9.742188 12.796875 -8.828125 C 13.390625 -7.921875 13.6875 -6.945312 13.6875 -5.90625 C 13.6875 -3.96875 13.050781 -2.4375 11.78125 -1.3125 C 10.507812 -0.1875 8.875 0.375 6.875 0.375 C 4.882812 0.375 3.257812 -0.171875 2 -1.265625 C 1.570312 -1.609375 1.207031 -2.039062 0.90625 -2.5625 C 0.601562 -3.082031 0.453125 -3.523438 0.453125 -3.890625 C 0.453125 -4.609375 0.726562 -4.96875 1.28125 -4.96875 C 1.476562 -4.96875 1.640625 -4.898438 1.765625 -4.765625 C 1.898438 -4.640625 2.050781 -4.398438 2.21875 -4.046875 C 2.382812 -3.691406 2.515625 -3.445312 2.609375 -3.3125 C 3.535156 -1.976562 4.898438 -1.3125 6.703125 -1.3125 C 8.140625 -1.3125 9.3125 -1.726562 10.21875 -2.5625 C 11.132812 -3.394531 11.59375 -4.476562 11.59375 -5.8125 C 11.59375 -7.195312 10.578125 -8.648438 8.546875 -10.171875 C 7.703125 -10.796875 6.851562 -11.441406 6 -12.109375 C 5.15625 -12.773438 4.429688 -13.550781 3.828125 -14.4375 C 3.234375 -15.320312 2.9375 -16.265625 2.9375 -17.265625 C 2.9375 -19.054688 3.570312 -20.445312 4.84375 -21.4375 C 6.113281 -22.425781 7.722656 -22.921875 9.671875 -22.921875 Z M 9.671875 -22.921875 "/></g></g><g style="fill:#070748;fill-opacity:1;"><g transform="translate(215.932584, 92.943724)"><path style="stroke:none" d="M 8.46875 0.34375 C 6.957031 0.34375 5.625 0.128906 4.46875 -0.296875 C 3.3125 -0.734375 2.363281 -1.296875 1.625 -1.984375 C 0.882812 -2.671875 0.347656 -3.425781 0.015625 -4.25 L 3.125 -7.109375 L 3.53125 -7.109375 C 4.007812 -6.054688 4.722656 -5.21875 5.671875 -4.59375 C 6.628906 -3.976562 7.835938 -3.671875 9.296875 -3.671875 C 10.523438 -3.671875 11.507812 -3.921875 12.25 -4.421875 C 13 -4.929688 13.46875 -5.613281 13.65625 -6.46875 C 13.71875 -6.757812 13.75 -7.023438 13.75 -7.265625 C 13.75 -7.878906 13.539062 -8.378906 13.125 -8.765625 C 12.71875 -9.160156 12.046875 -9.488281 11.109375 -9.75 L 8.8125 -10.390625 C 7.101562 -10.878906 5.769531 -11.628906 4.8125 -12.640625 C 3.863281 -13.660156 3.390625 -14.894531 3.390625 -16.34375 C 3.390625 -16.820312 3.445312 -17.335938 3.5625 -17.890625 C 3.945312 -19.660156 4.882812 -21.085938 6.375 -22.171875 C 7.875 -23.253906 10.066406 -23.796875 12.953125 -23.796875 C 14.765625 -23.796875 16.289062 -23.535156 17.53125 -23.015625 C 18.78125 -22.503906 19.78125 -21.722656 20.53125 -20.671875 L 17.59375 -17.75 L 17.203125 -17.75 C 16.671875 -18.4375 16.015625 -18.953125 15.234375 -19.296875 C 14.460938 -19.648438 13.523438 -19.828125 12.421875 -19.828125 C 11.171875 -19.828125 10.164062 -19.617188 9.40625 -19.203125 C 8.644531 -18.785156 8.1875 -18.222656 8.03125 -17.515625 C 7.976562 -17.273438 7.953125 -17.0625 7.953125 -16.875 C 7.953125 -16.289062 8.160156 -15.804688 8.578125 -15.421875 C 9.003906 -15.035156 9.648438 -14.726562 10.515625 -14.5 L 13.078125 -13.8125 C 14.847656 -13.332031 16.203125 -12.625 17.140625 -11.6875 C 18.078125 -10.757812 18.546875 -9.546875 18.546875 -8.046875 C 18.546875 -7.484375 18.476562 -6.894531 18.34375 -6.28125 C 17.394531 -1.863281 14.101562 0.34375 8.46875 0.34375 Z M 8.46875 0.34375 "/></g></g><g style="fill:#070748;fill-opacity:1;"><g transform="translate(236.083066, 92.943724)"><path style="stroke:none" d="M 21.90625 -23.453125 L 21.078125 -19.5625 L 14.296875 -19.5625 L 10.15625 0 L 5.53125 0 L 9.671875 -19.5625 L 2.921875 -19.5625 L 3.734375 -23.453125 Z M 21.90625 -23.453125 "/></g></g><g style="fill:#070748;fill-opacity:1;"><g transform="translate(255.52764, 92.943724)"><path style="stroke:none" d="M 1.171875 0 L 6.140625 -23.453125 L 15.078125 -23.453125 C 16.453125 -23.453125 17.628906 -23.242188 18.609375 -22.828125 C 19.597656 -22.410156 20.347656 -21.804688 20.859375 -21.015625 C 21.367188 -20.234375 21.625 -19.296875 21.625 -18.203125 C 21.625 -17.679688 21.5625 -17.125 21.4375 -16.53125 C 21.15625 -15.1875 20.523438 -14.066406 19.546875 -13.171875 C 18.566406 -12.273438 17.382812 -11.722656 16 -11.515625 L 15.921875 -11.1875 C 16.609375 -10.851562 17.117188 -10.375 17.453125 -9.75 C 17.796875 -9.125 18.035156 -8.207031 18.171875 -7 L 18.46875 -4.578125 L 19.046875 0 L 14.375 0 L 14.296875 -0.65625 C 14.210938 -1.363281 14.109375 -2.242188 13.984375 -3.296875 C 13.859375 -4.359375 13.722656 -5.597656 13.578125 -7.015625 C 13.492188 -7.722656 13.34375 -8.269531 13.125 -8.65625 C 12.90625 -9.039062 12.585938 -9.320312 12.171875 -9.5 C 11.753906 -9.675781 11.1875 -9.765625 10.46875 -9.765625 L 7.875 -9.765625 L 5.8125 0 Z M 12.890625 -13.453125 C 14.066406 -13.453125 14.972656 -13.703125 15.609375 -14.203125 C 16.253906 -14.703125 16.679688 -15.457031 16.890625 -16.46875 C 16.960938 -16.789062 17 -17.109375 17 -17.421875 C 17 -18.210938 16.75 -18.800781 16.25 -19.1875 C 15.757812 -19.582031 15.054688 -19.78125 14.140625 -19.78125 L 10.015625 -19.78125 L 8.671875 -13.453125 Z M 12.890625 -13.453125 "/></g></g><g style="fill:#070748;fill-opacity:1;"><g transform="translate(277.458938, 92.943724)"><path style="stroke:none" d="M 21.71875 -23.453125 L 20.90625 -19.578125 L 9.96875 -19.578125 L 8.796875 -14.09375 L 18.359375 -14.09375 L 17.546875 -10.296875 L 7.984375 -10.296875 L 6.625 -3.875 L 17.828125 -3.875 L 17 0 L 1.171875 0 L 6.140625 -23.453125 Z M 21.71875 -23.453125 "/></g></g><g style="fill:#070748;fill-opacity:1;"><g transform="translate(297.625464, 92.943724)"><path style="stroke:none" d="M 21.71875 -23.453125 L 20.90625 -19.578125 L 9.96875 -19.578125 L 8.796875 -14.09375 L 18.359375 -14.09375 L 17.546875 -10.296875 L 7.984375 -10.296875 L 6.625 -3.875 L 17.828125 -3.875 L 17 0 L 1.171875 0 L 6.140625 -23.453125 Z M 21.71875 -23.453125 "/></g></g><g style="fill:#070748;fill-opacity:1;"><g transform="translate(317.791989, 92.943724)"><path style="stroke:none" d="M 21.90625 -23.453125 L 21.078125 -19.5625 L 14.296875 -19.5625 L 10.15625 0 L 5.53125 0 L 9.671875 -19.5625 L 2.921875 -19.5625 L 3.734375 -23.453125 Z M 21.90625 -23.453125 "/></g></g><g style="fill:#070748;fill-opacity:1;"><g transform="translate(99.468991, 108.321764)"><path style="stroke:none" d="M 2.96875 0.09375 C 2.539062 0.09375 2.15625 0.0351562 1.8125 -0.078125 C 1.476562 -0.191406 1.195312 -0.34375 0.96875 -0.53125 C 0.75 -0.71875 0.582031 -0.925781 0.46875 -1.15625 L 0.90625 -1.6875 L 1.015625 -1.6875 C 1.441406 -0.976562 2.09375 -0.625 2.96875 -0.625 C 3.476562 -0.625 3.859375 -0.726562 4.109375 -0.9375 C 4.359375 -1.15625 4.484375 -1.457031 4.484375 -1.84375 C 4.484375 -2.0625 4.441406 -2.25 4.359375 -2.40625 C 4.285156 -2.5625 4.148438 -2.691406 3.953125 -2.796875 C 3.765625 -2.910156 3.507812 -3.007812 3.1875 -3.09375 L 2.390625 -3.28125 C 1.796875 -3.425781 1.359375 -3.65625 1.078125 -3.96875 C 0.796875 -4.28125 0.65625 -4.675781 0.65625 -5.15625 C 0.65625 -5.488281 0.742188 -5.785156 0.921875 -6.046875 C 1.097656 -6.316406 1.351562 -6.523438 1.6875 -6.671875 C 2.019531 -6.828125 2.421875 -6.90625 2.890625 -6.90625 C 3.398438 -6.90625 3.828125 -6.832031 4.171875 -6.6875 C 4.523438 -6.539062 4.8125 -6.320312 5.03125 -6.03125 L 4.640625 -5.515625 L 4.515625 -5.515625 C 4.316406 -5.753906 4.082031 -5.925781 3.8125 -6.03125 C 3.550781 -6.144531 3.242188 -6.203125 2.890625 -6.203125 C 2.410156 -6.203125 2.050781 -6.109375 1.8125 -5.921875 C 1.570312 -5.742188 1.453125 -5.492188 1.453125 -5.171875 C 1.453125 -4.859375 1.539062 -4.613281 1.71875 -4.4375 C 1.894531 -4.257812 2.191406 -4.117188 2.609375 -4.015625 L 3.4375 -3.828125 C 4.09375 -3.671875 4.566406 -3.429688 4.859375 -3.109375 C 5.160156 -2.785156 5.3125 -2.375 5.3125 -1.875 C 5.3125 -1.488281 5.222656 -1.144531 5.046875 -0.84375 C 4.878906 -0.550781 4.617188 -0.320312 4.265625 -0.15625 C 3.910156 0.0078125 3.476562 0.09375 2.96875 0.09375 Z M 2.96875 0.09375 "/></g></g><g style="fill:#070748;fill-opacity:1;"><g transform="translate(105.62792, 108.321764)"><path style="stroke:none" d="M 1.828125 -3.203125 L 1.828125 -0.65625 L 5.296875 -0.65625 L 5.296875 0 L 1.03125 0 L 1.03125 -6.796875 L 5.21875 -6.796875 L 5.21875 -6.140625 L 1.828125 -6.140625 L 1.828125 -3.875 L 4.828125 -3.875 L 4.828125 -3.203125 Z M 1.828125 -3.203125 "/></g></g><g style="fill:#070748;fill-opacity:1;"><g transform="translate(111.703029, 108.321764)"><path style="stroke:none" d="M 3.578125 0.09375 C 3.003906 0.09375 2.5 -0.0351562 2.0625 -0.296875 C 1.632812 -0.554688 1.296875 -0.945312 1.046875 -1.46875 C 0.796875 -1.988281 0.671875 -2.632812 0.671875 -3.40625 C 0.671875 -4.164062 0.800781 -4.804688 1.0625 -5.328125 C 1.332031 -5.859375 1.695312 -6.253906 2.15625 -6.515625 C 2.625 -6.773438 3.164062 -6.90625 3.78125 -6.90625 C 4.425781 -6.90625 4.957031 -6.785156 5.375 -6.546875 C 5.800781 -6.316406 6.097656 -5.96875 6.265625 -5.5 L 5.75 -5.1875 L 5.625 -5.1875 C 5.445312 -5.539062 5.207031 -5.796875 4.90625 -5.953125 C 4.613281 -6.109375 4.238281 -6.1875 3.78125 -6.1875 C 2.28125 -6.1875 1.53125 -5.257812 1.53125 -3.40625 C 1.53125 -2.4375 1.71875 -1.726562 2.09375 -1.28125 C 2.46875 -0.84375 2.992188 -0.625 3.671875 -0.625 C 4.296875 -0.625 4.757812 -0.765625 5.0625 -1.046875 C 5.375 -1.328125 5.53125 -1.773438 5.53125 -2.390625 L 5.53125 -2.984375 L 3.59375 -2.984375 L 3.59375 -3.625 L 6.3125 -3.625 L 6.3125 0 L 5.578125 0 L 5.578125 -0.90625 L 5.46875 -0.9375 C 5.289062 -0.582031 5.039062 -0.320312 4.71875 -0.15625 C 4.394531 0.0078125 4.015625 0.09375 3.578125 0.09375 Z M 3.578125 0.09375 "/></g></g><g style="fill:#070748;fill-opacity:1;"><g transform="translate(119.105263, 108.321764)"><path style="stroke:none" d="M 3.515625 0.09375 C 2.671875 0.09375 2.035156 -0.113281 1.609375 -0.53125 C 1.179688 -0.957031 0.96875 -1.585938 0.96875 -2.421875 L 0.96875 -6.796875 L 1.765625 -6.796875 L 1.765625 -2.421875 C 1.765625 -1.828125 1.90625 -1.378906 2.1875 -1.078125 C 2.476562 -0.785156 2.921875 -0.640625 3.515625 -0.640625 C 4.671875 -0.640625 5.25 -1.234375 5.25 -2.421875 L 5.25 -6.796875 L 6.046875 -6.796875 L 6.046875 -2.421875 C 6.046875 -1.585938 5.832031 -0.957031 5.40625 -0.53125 C 4.976562 -0.113281 4.347656 0.09375 3.515625 0.09375 Z M 3.515625 0.09375 "/></g></g><g style="fill:#070748;fill-opacity:1;"><g transform="translate(126.446962, 108.321764)"><path style="stroke:none" d="M 1.03125 0 L 1.03125 -6.796875 L 3.5 -6.796875 C 3.957031 -6.796875 4.335938 -6.722656 4.640625 -6.578125 C 4.953125 -6.429688 5.1875 -6.21875 5.34375 -5.9375 C 5.5 -5.664062 5.578125 -5.34375 5.578125 -4.96875 C 5.578125 -4.539062 5.472656 -4.191406 5.265625 -3.921875 C 5.054688 -3.648438 4.726562 -3.441406 4.28125 -3.296875 L 4.28125 -3.203125 C 4.5 -3.117188 4.675781 -2.984375 4.8125 -2.796875 C 4.957031 -2.609375 5.085938 -2.332031 5.203125 -1.96875 L 5.828125 0 L 5 0 L 4.328125 -2.078125 C 4.242188 -2.328125 4.148438 -2.519531 4.046875 -2.65625 C 3.941406 -2.789062 3.804688 -2.890625 3.640625 -2.953125 C 3.484375 -3.015625 3.28125 -3.046875 3.03125 -3.046875 L 1.828125 -3.046875 L 1.828125 0 Z M 3.484375 -3.734375 C 3.910156 -3.734375 4.226562 -3.832031 4.4375 -4.03125 C 4.644531 -4.226562 4.75 -4.523438 4.75 -4.921875 C 4.75 -5.328125 4.644531 -5.628906 4.4375 -5.828125 C 4.226562 -6.023438 3.910156 -6.125 3.484375 -6.125 L 1.828125 -6.125 L 1.828125 -3.734375 Z M 3.484375 -3.734375 "/></g></g><g style="fill:#070748;fill-opacity:1;"><g transform="translate(133.076204, 108.321764)"><path style="stroke:none" d="M 6.125 0 L 5.265625 0 L 4.640625 -1.859375 L 1.734375 -1.859375 L 1.109375 0 L 0.265625 0 L 2.640625 -6.796875 L 3.75 -6.796875 Z M 3.125 -5.984375 L 1.96875 -2.53125 L 4.40625 -2.53125 L 3.25 -5.984375 Z M 3.125 -5.984375 "/></g></g><g style="fill:#070748;fill-opacity:1;"><g transform="translate(139.798578, 108.321764)"><path style="stroke:none" d="M 1.8125 0 L 1.03125 0 L 1.03125 -6.796875 L 2.015625 -6.796875 L 5.328125 -1.609375 L 5.4375 -1.625 L 5.4375 -6.796875 L 6.21875 -6.796875 L 6.21875 0 L 5.390625 0 L 1.921875 -5.5625 L 1.8125 -5.546875 Z M 1.8125 0 "/></g></g><g style="fill:#070748;fill-opacity:1;"><g transform="translate(147.382419, 108.321764)"><path style="stroke:none" d="M 6.3125 -1.765625 C 6.164062 -1.203125 5.890625 -0.757812 5.484375 -0.4375 C 5.085938 -0.113281 4.582031 0.0625 3.96875 0.09375 L 3.734375 0.640625 L 3.75 0.671875 C 3.78125 0.671875 3.820312 0.671875 3.875 0.671875 C 4.101562 0.671875 4.28125 0.734375 4.40625 0.859375 C 4.539062 0.992188 4.609375 1.164062 4.609375 1.375 C 4.609375 1.625 4.519531 1.816406 4.34375 1.953125 C 4.175781 2.097656 3.914062 2.171875 3.5625 2.171875 C 3.382812 2.171875 3.222656 2.15625 3.078125 2.125 C 2.941406 2.09375 2.828125 2.039062 2.734375 1.96875 L 2.90625 1.5 L 2.96875 1.5 C 3.0625 1.5625 3.148438 1.609375 3.234375 1.640625 C 3.328125 1.671875 3.4375 1.6875 3.5625 1.6875 C 3.695312 1.6875 3.800781 1.660156 3.875 1.609375 C 3.945312 1.554688 3.984375 1.476562 3.984375 1.375 C 3.984375 1.175781 3.828125 1.078125 3.515625 1.078125 C 3.441406 1.078125 3.332031 1.082031 3.1875 1.09375 L 3.09375 0.75 L 3.390625 0.078125 C 2.859375 0.0234375 2.382812 -0.144531 1.96875 -0.4375 C 1.5625 -0.726562 1.242188 -1.125 1.015625 -1.625 C 0.785156 -2.125 0.671875 -2.71875 0.671875 -3.40625 C 0.671875 -4.132812 0.800781 -4.757812 1.0625 -5.28125 C 1.332031 -5.8125 1.695312 -6.210938 2.15625 -6.484375 C 2.625 -6.765625 3.160156 -6.90625 3.765625 -6.90625 C 4.398438 -6.90625 4.925781 -6.785156 5.34375 -6.546875 C 5.769531 -6.304688 6.078125 -5.941406 6.265625 -5.453125 L 5.75 -5.109375 L 5.625 -5.109375 C 5.445312 -5.503906 5.207031 -5.78125 4.90625 -5.9375 C 4.601562 -6.101562 4.222656 -6.1875 3.765625 -6.1875 C 3.335938 -6.1875 2.957031 -6.085938 2.625 -5.890625 C 2.289062 -5.703125 2.023438 -5.398438 1.828125 -4.984375 C 1.628906 -4.578125 1.53125 -4.050781 1.53125 -3.40625 C 1.53125 -2.757812 1.628906 -2.226562 1.828125 -1.8125 C 2.023438 -1.40625 2.289062 -1.101562 2.625 -0.90625 C 2.957031 -0.71875 3.335938 -0.625 3.765625 -0.625 C 4.253906 -0.625 4.65625 -0.734375 4.96875 -0.953125 C 5.28125 -1.179688 5.515625 -1.539062 5.671875 -2.03125 L 5.78125 -2.03125 Z M 6.3125 -1.765625 "/></g></g><g style="fill:#070748;fill-opacity:1;"><g transform="translate(154.384187, 108.321764)"><path style="stroke:none" d="M 6.125 0 L 5.265625 0 L 4.640625 -1.859375 L 1.734375 -1.859375 L 1.109375 0 L 0.265625 0 L 2.640625 -6.796875 L 3.75 -6.796875 Z M 3.125 -5.984375 L 1.96875 -2.53125 L 4.40625 -2.53125 L 3.25 -5.984375 Z M 3.125 -5.984375 "/></g></g><g style="fill:#070748;fill-opacity:1;"><g transform="translate(161.106561, 108.321764)"><path style="stroke:none" d=""/></g></g><g style="fill:#070748;fill-opacity:1;"><g transform="translate(163.768401, 108.321764)"><path style="stroke:none" d="M 1.828125 -3.203125 L 1.828125 -0.65625 L 5.296875 -0.65625 L 5.296875 0 L 1.03125 0 L 1.03125 -6.796875 L 5.21875 -6.796875 L 5.21875 -6.140625 L 1.828125 -6.140625 L 1.828125 -3.875 L 4.828125 -3.875 L 4.828125 -3.203125 Z M 1.828125 -3.203125 "/></g></g><g style="fill:#070748;fill-opacity:1;"><g transform="translate(169.84351, 108.321764)"><path style="stroke:none" d=""/></g></g><g style="fill:#070748;fill-opacity:1;"><g transform="translate(172.50535, 108.321764)"><path style="stroke:none" d="M 3.765625 0.09375 C 3.160156 0.09375 2.625 -0.0390625 2.15625 -0.3125 C 1.695312 -0.582031 1.332031 -0.976562 1.0625 -1.5 C 0.800781 -2.03125 0.671875 -2.664062 0.671875 -3.40625 C 0.671875 -4.132812 0.800781 -4.757812 1.0625 -5.28125 C 1.332031 -5.8125 1.695312 -6.210938 2.15625 -6.484375 C 2.625 -6.765625 3.160156 -6.90625 3.765625 -6.90625 C 4.398438 -6.90625 4.925781 -6.785156 5.34375 -6.546875 C 5.769531 -6.304688 6.078125 -5.941406 6.265625 -5.453125 L 5.75 -5.109375 L 5.625 -5.109375 C 5.445312 -5.503906 5.207031 -5.78125 4.90625 -5.9375 C 4.601562 -6.101562 4.222656 -6.1875 3.765625 -6.1875 C 3.335938 -6.1875 2.957031 -6.085938 2.625 -5.890625 C 2.289062 -5.703125 2.023438 -5.398438 1.828125 -4.984375 C 1.628906 -4.578125 1.53125 -4.050781 1.53125 -3.40625 C 1.53125 -2.757812 1.628906 -2.226562 1.828125 -1.8125 C 2.023438 -1.40625 2.289062 -1.101562 2.625 -0.90625 C 2.957031 -0.71875 3.335938 -0.625 3.765625 -0.625 C 4.253906 -0.625 4.65625 -0.734375 4.96875 -0.953125 C 5.28125 -1.179688 5.515625 -1.539062 5.671875 -2.03125 L 5.78125 -2.03125 L 6.3125 -1.765625 C 6.15625 -1.160156 5.859375 -0.695312 5.421875 -0.375 C 4.984375 -0.0625 4.429688 0.09375 3.765625 0.09375 Z M 3.765625 0.09375 "/></g></g><g style="fill:#070748;fill-opacity:1;"><g transform="translate(179.507119, 108.321764)"><path style="stroke:none" d="M 3.734375 0.09375 C 3.140625 0.09375 2.613281 -0.03125 2.15625 -0.28125 C 1.695312 -0.539062 1.332031 -0.929688 1.0625 -1.453125 C 0.800781 -1.972656 0.671875 -2.625 0.671875 -3.40625 C 0.671875 -4.175781 0.800781 -4.820312 1.0625 -5.34375 C 1.332031 -5.875 1.695312 -6.265625 2.15625 -6.515625 C 2.613281 -6.773438 3.140625 -6.90625 3.734375 -6.90625 C 4.316406 -6.90625 4.835938 -6.773438 5.296875 -6.515625 C 5.765625 -6.265625 6.128906 -5.875 6.390625 -5.34375 C 6.648438 -4.820312 6.78125 -4.175781 6.78125 -3.40625 C 6.78125 -2.625 6.648438 -1.972656 6.390625 -1.453125 C 6.128906 -0.929688 5.765625 -0.539062 5.296875 -0.28125 C 4.835938 -0.03125 4.316406 0.09375 3.734375 0.09375 Z M 3.734375 -0.640625 C 4.441406 -0.640625 4.984375 -0.859375 5.359375 -1.296875 C 5.734375 -1.742188 5.921875 -2.445312 5.921875 -3.40625 C 5.921875 -4.351562 5.734375 -5.046875 5.359375 -5.484375 C 4.984375 -5.929688 4.441406 -6.15625 3.734375 -6.15625 C 2.265625 -6.15625 1.53125 -5.238281 1.53125 -3.40625 C 1.53125 -1.5625 2.265625 -0.640625 3.734375 -0.640625 Z M 3.734375 -0.640625 "/></g></g><g style="fill:#070748;fill-opacity:1;"><g transform="translate(187.300505, 108.321764)"><path style="stroke:none" d="M 1.8125 0 L 1.03125 0 L 1.03125 -6.796875 L 2.015625 -6.796875 L 5.328125 -1.609375 L 5.4375 -1.625 L 5.4375 -6.796875 L 6.21875 -6.796875 L 6.21875 0 L 5.390625 0 L 1.921875 -5.5625 L 1.8125 -5.546875 Z M 1.8125 0 "/></g></g><g style="fill:#070748;fill-opacity:1;"><g transform="translate(194.884345, 108.321764)"><path style="stroke:none" d="M 5.03125 -6.796875 L 5.03125 -6.140625 L 1.828125 -6.140625 L 1.828125 -3.671875 L 4.703125 -3.671875 L 4.703125 -3 L 1.828125 -3 L 1.828125 0 L 1.03125 0 L 1.03125 -6.796875 Z M 5.03125 -6.796875 "/></g></g><g style="fill:#070748;fill-opacity:1;"><g transform="translate(200.605555, 108.321764)"><path style="stroke:none" d="M 3.734375 0.09375 C 3.140625 0.09375 2.613281 -0.03125 2.15625 -0.28125 C 1.695312 -0.539062 1.332031 -0.929688 1.0625 -1.453125 C 0.800781 -1.972656 0.671875 -2.625 0.671875 -3.40625 C 0.671875 -4.175781 0.800781 -4.820312 1.0625 -5.34375 C 1.332031 -5.875 1.695312 -6.265625 2.15625 -6.515625 C 2.613281 -6.773438 3.140625 -6.90625 3.734375 -6.90625 C 4.316406 -6.90625 4.835938 -6.773438 5.296875 -6.515625 C 5.765625 -6.265625 6.128906 -5.875 6.390625 -5.34375 C 6.648438 -4.820312 6.78125 -4.175781 6.78125 -3.40625 C 6.78125 -2.625 6.648438 -1.972656 6.390625 -1.453125 C 6.128906 -0.929688 5.765625 -0.539062 5.296875 -0.28125 C 4.835938 -0.03125 4.316406 0.09375 3.734375 0.09375 Z M 3.734375 -0.640625 C 4.441406 -0.640625 4.984375 -0.859375 5.359375 -1.296875 C 5.734375 -1.742188 5.921875 -2.445312 5.921875 -3.40625 C 5.921875 -4.351562 5.734375 -5.046875 5.359375 -5.484375 C 4.984375 -5.929688 4.441406 -6.15625 3.734375 -6.15625 C 2.265625 -6.15625 1.53125 -5.238281 1.53125 -3.40625 C 1.53125 -1.5625 2.265625 -0.640625 3.734375 -0.640625 Z M 3.734375 -0.640625 "/></g></g><g style="fill:#070748;fill-opacity:1;"><g transform="translate(208.398942, 108.321764)"><path style="stroke:none" d="M 1.03125 0 L 1.03125 -6.796875 L 3.5 -6.796875 C 3.957031 -6.796875 4.335938 -6.722656 4.640625 -6.578125 C 4.953125 -6.429688 5.1875 -6.21875 5.34375 -5.9375 C 5.5 -5.664062 5.578125 -5.34375 5.578125 -4.96875 C 5.578125 -4.539062 5.472656 -4.191406 5.265625 -3.921875 C 5.054688 -3.648438 4.726562 -3.441406 4.28125 -3.296875 L 4.28125 -3.203125 C 4.5 -3.117188 4.675781 -2.984375 4.8125 -2.796875 C 4.957031 -2.609375 5.085938 -2.332031 5.203125 -1.96875 L 5.828125 0 L 5 0 L 4.328125 -2.078125 C 4.242188 -2.328125 4.148438 -2.519531 4.046875 -2.65625 C 3.941406 -2.789062 3.804688 -2.890625 3.640625 -2.953125 C 3.484375 -3.015625 3.28125 -3.046875 3.03125 -3.046875 L 1.828125 -3.046875 L 1.828125 0 Z M 3.484375 -3.734375 C 3.910156 -3.734375 4.226562 -3.832031 4.4375 -4.03125 C 4.644531 -4.226562 4.75 -4.523438 4.75 -4.921875 C 4.75 -5.328125 4.644531 -5.628906 4.4375 -5.828125 C 4.226562 -6.023438 3.910156 -6.125 3.484375 -6.125 L 1.828125 -6.125 L 1.828125 -3.734375 Z M 3.484375 -3.734375 "/></g></g><g style="fill:#070748;fill-opacity:1;"><g transform="translate(215.028184, 108.321764)"><path style="stroke:none" d="M 5.3125 -6.796875 L 5.3125 -6.125 L 3.171875 -6.125 L 3.171875 0 L 2.390625 0 L 2.390625 -6.125 L 0.25 -6.125 L 0.25 -6.796875 Z M 5.3125 -6.796875 "/></g></g><g style="fill:#070748;fill-opacity:1;"><g transform="translate(220.912374, 108.321764)"><path style="stroke:none" d="M 3.734375 0.09375 C 3.140625 0.09375 2.613281 -0.03125 2.15625 -0.28125 C 1.695312 -0.539062 1.332031 -0.929688 1.0625 -1.453125 C 0.800781 -1.972656 0.671875 -2.625 0.671875 -3.40625 C 0.671875 -4.175781 0.800781 -4.820312 1.0625 -5.34375 C 1.332031 -5.875 1.695312 -6.265625 2.15625 -6.515625 C 2.613281 -6.773438 3.140625 -6.90625 3.734375 -6.90625 C 4.316406 -6.90625 4.835938 -6.773438 5.296875 -6.515625 C 5.765625 -6.265625 6.128906 -5.875 6.390625 -5.34375 C 6.648438 -4.820312 6.78125 -4.175781 6.78125 -3.40625 C 6.78125 -2.625 6.648438 -1.972656 6.390625 -1.453125 C 6.128906 -0.929688 5.765625 -0.539062 5.296875 -0.28125 C 4.835938 -0.03125 4.316406 0.09375 3.734375 0.09375 Z M 3.734375 -0.640625 C 4.441406 -0.640625 4.984375 -0.859375 5.359375 -1.296875 C 5.734375 -1.742188 5.921875 -2.445312 5.921875 -3.40625 C 5.921875 -4.351562 5.734375 -5.046875 5.359375 -5.484375 C 4.984375 -5.929688 4.441406 -6.15625 3.734375 -6.15625 C 2.265625 -6.15625 1.53125 -5.238281 1.53125 -3.40625 C 1.53125 -1.5625 2.265625 -0.640625 3.734375 -0.640625 Z M 3.734375 -0.640625 "/></g></g><g style="fill:#070748;fill-opacity:1;"><g transform="translate(228.705761, 108.321764)"><path style="stroke:none" d=""/></g></g><g style="fill:#070748;fill-opacity:1;"><g transform="translate(231.3676, 108.321764)"><path style="stroke:none" d="M 6.125 0 L 5.265625 0 L 4.640625 -1.859375 L 1.734375 -1.859375 L 1.109375 0 L 0.265625 0 L 2.640625 -6.796875 L 3.75 -6.796875 Z M 3.125 -5.984375 L 1.96875 -2.53125 L 4.40625 -2.53125 L 3.25 -5.984375 Z M 3.125 -5.984375 "/></g></g><g style="fill:#070748;fill-opacity:1;"><g transform="translate(238.089974, 108.321764)"><path style="stroke:none" d=""/></g></g><g style="fill:#070748;fill-opacity:1;"><g transform="translate(240.751814, 108.321764)"><path style="stroke:none" d="M 3.765625 0.09375 C 3.160156 0.09375 2.625 -0.0390625 2.15625 -0.3125 C 1.695312 -0.582031 1.332031 -0.976562 1.0625 -1.5 C 0.800781 -2.03125 0.671875 -2.664062 0.671875 -3.40625 C 0.671875 -4.132812 0.800781 -4.757812 1.0625 -5.28125 C 1.332031 -5.8125 1.695312 -6.210938 2.15625 -6.484375 C 2.625 -6.765625 3.160156 -6.90625 3.765625 -6.90625 C 4.398438 -6.90625 4.925781 -6.785156 5.34375 -6.546875 C 5.769531 -6.304688 6.078125 -5.941406 6.265625 -5.453125 L 5.75 -5.109375 L 5.625 -5.109375 C 5.445312 -5.503906 5.207031 -5.78125 4.90625 -5.9375 C 4.601562 -6.101562 4.222656 -6.1875 3.765625 -6.1875 C 3.335938 -6.1875 2.957031 -6.085938 2.625 -5.890625 C 2.289062 -5.703125 2.023438 -5.398438 1.828125 -4.984375 C 1.628906 -4.578125 1.53125 -4.050781 1.53125 -3.40625 C 1.53125 -2.757812 1.628906 -2.226562 1.828125 -1.8125 C 2.023438 -1.40625 2.289062 -1.101562 2.625 -0.90625 C 2.957031 -0.71875 3.335938 -0.625 3.765625 -0.625 C 4.253906 -0.625 4.65625 -0.734375 4.96875 -0.953125 C 5.28125 -1.179688 5.515625 -1.539062 5.671875 -2.03125 L 5.78125 -2.03125 L 6.3125 -1.765625 C 6.15625 -1.160156 5.859375 -0.695312 5.421875 -0.375 C 4.984375 -0.0625 4.429688 0.09375 3.765625 0.09375 Z M 3.765625 0.09375 "/></g></g><g style="fill:#070748;fill-opacity:1;"><g transform="translate(247.753582, 108.321764)"><path style="stroke:none" d="M 6.125 0 L 5.265625 0 L 4.640625 -1.859375 L 1.734375 -1.859375 L 1.109375 0 L 0.265625 0 L 2.640625 -6.796875 L 3.75 -6.796875 Z M 3.125 -5.984375 L 1.96875 -2.53125 L 4.40625 -2.53125 L 3.25 -5.984375 Z M 3.125 -5.984375 "/></g></g><g style="fill:#070748;fill-opacity:1;"><g transform="translate(254.475956, 108.321764)"><path style="stroke:none" d="M 3.234375 -6.796875 C 3.921875 -6.796875 4.507812 -6.671875 5 -6.421875 C 5.5 -6.179688 5.878906 -5.804688 6.140625 -5.296875 C 6.410156 -4.796875 6.546875 -4.164062 6.546875 -3.40625 C 6.546875 -2.632812 6.410156 -1.992188 6.140625 -1.484375 C 5.878906 -0.984375 5.5 -0.609375 5 -0.359375 C 4.507812 -0.117188 3.921875 0 3.234375 0 L 1.03125 0 L 1.03125 -6.796875 Z M 3.15625 -0.671875 C 3.71875 -0.671875 4.1875 -0.757812 4.5625 -0.9375 C 4.9375 -1.113281 5.21875 -1.398438 5.40625 -1.796875 C 5.601562 -2.203125 5.703125 -2.738281 5.703125 -3.40625 C 5.703125 -4.0625 5.601562 -4.585938 5.40625 -4.984375 C 5.21875 -5.390625 4.9375 -5.679688 4.5625 -5.859375 C 4.1875 -6.035156 3.71875 -6.125 3.15625 -6.125 L 1.828125 -6.125 L 1.828125 -0.671875 Z M 3.15625 -0.671875 "/></g></g><g style="fill:#070748;fill-opacity:1;"><g transform="translate(262.036514, 108.321764)"><path style="stroke:none" d="M 6.125 0 L 5.265625 0 L 4.640625 -1.859375 L 1.734375 -1.859375 L 1.109375 0 L 0.265625 0 L 2.640625 -6.796875 L 3.75 -6.796875 Z M 3.125 -5.984375 L 1.96875 -2.53125 L 4.40625 -2.53125 L 3.25 -5.984375 Z M 3.125 -5.984375 "/></g></g><g style="fill:#070748;fill-opacity:1;"><g transform="translate(268.758888, 108.321764)"><path style="stroke:none" d=""/></g></g><g style="fill:#070748;fill-opacity:1;"><g transform="translate(271.420727, 108.321764)"><path style="stroke:none" d="M 1.03125 0 L 1.03125 -6.796875 L 1.828125 -6.796875 L 1.828125 -3.828125 L 1.96875 -3.828125 L 4.765625 -6.796875 L 5.640625 -6.796875 L 5.640625 -6.6875 L 2.6875 -3.515625 L 5.875 -0.109375 L 5.875 0 L 4.953125 0 L 1.96875 -3.125 L 1.828125 -3.125 L 1.828125 0 Z M 1.03125 0 "/></g></g><g style="fill:#070748;fill-opacity:1;"><g transform="translate(277.751949, 108.321764)"><path style="stroke:none" d="M 1.828125 0 L 1.03125 0 L 1.03125 -6.796875 L 1.828125 -6.796875 Z M 1.828125 0 "/></g></g><g style="fill:#070748;fill-opacity:1;"><g transform="translate(280.939982, 108.321764)"><path style="stroke:none" d="M 1.828125 -6.796875 L 1.828125 -0.65625 L 5.109375 -0.65625 L 5.109375 0 L 1.03125 0 L 1.03125 -6.796875 Z M 1.828125 -6.796875 "/></g></g><g style="fill:#070748;fill-opacity:1;"><g transform="translate(286.661192, 108.321764)"><path style="stroke:none" d="M 3.734375 0.09375 C 3.140625 0.09375 2.613281 -0.03125 2.15625 -0.28125 C 1.695312 -0.539062 1.332031 -0.929688 1.0625 -1.453125 C 0.800781 -1.972656 0.671875 -2.625 0.671875 -3.40625 C 0.671875 -4.175781 0.800781 -4.820312 1.0625 -5.34375 C 1.332031 -5.875 1.695312 -6.265625 2.15625 -6.515625 C 2.613281 -6.773438 3.140625 -6.90625 3.734375 -6.90625 C 4.316406 -6.90625 4.835938 -6.773438 5.296875 -6.515625 C 5.765625 -6.265625 6.128906 -5.875 6.390625 -5.34375 C 6.648438 -4.820312 6.78125 -4.175781 6.78125 -3.40625 C 6.78125 -2.625 6.648438 -1.972656 6.390625 -1.453125 C 6.128906 -0.929688 5.765625 -0.539062 5.296875 -0.28125 C 4.835938 -0.03125 4.316406 0.09375 3.734375 0.09375 Z M 3.734375 -0.640625 C 4.441406 -0.640625 4.984375 -0.859375 5.359375 -1.296875 C 5.734375 -1.742188 5.921875 -2.445312 5.921875 -3.40625 C 5.921875 -4.351562 5.734375 -5.046875 5.359375 -5.484375 C 4.984375 -5.929688 4.441406 -6.15625 3.734375 -6.15625 C 2.265625 -6.15625 1.53125 -5.238281 1.53125 -3.40625 C 1.53125 -1.5625 2.265625 -0.640625 3.734375 -0.640625 Z M 2.875 -7.296875 L 2.328125 -7.296875 L 2.328125 -7.390625 L 3.328125 -8.59375 L 4.140625 -8.59375 L 5.140625 -7.390625 L 5.140625 -7.296875 L 4.59375 -7.296875 L 3.734375 -7.9375 Z M 2.875 -7.296875 "/></g></g><g style="fill:#070748;fill-opacity:1;"><g transform="translate(294.454578, 108.321764)"><path style="stroke:none" d="M 1.765625 0 L 1.03125 0 L 1.03125 -6.796875 L 2.21875 -6.796875 L 4.28125 -1.046875 L 4.375 -1.046875 L 6.4375 -6.796875 L 7.578125 -6.796875 L 7.578125 0 L 6.828125 0 L 6.828125 -5.546875 L 6.703125 -5.578125 L 4.703125 0 L 3.90625 0 L 1.890625 -5.578125 L 1.765625 -5.546875 Z M 1.765625 0 "/></g></g><g style="fill:#070748;fill-opacity:1;"><g transform="translate(303.398139, 108.321764)"><path style="stroke:none" d="M 1.828125 -3.203125 L 1.828125 -0.65625 L 5.296875 -0.65625 L 5.296875 0 L 1.03125 0 L 1.03125 -6.796875 L 5.21875 -6.796875 L 5.21875 -6.140625 L 1.828125 -6.140625 L 1.828125 -3.875 L 4.828125 -3.875 L 4.828125 -3.203125 Z M 1.828125 -3.203125 "/></g></g><g style="fill:#070748;fill-opacity:1;"><g transform="translate(309.473248, 108.321764)"><path style="stroke:none" d="M 5.3125 -6.796875 L 5.3125 -6.125 L 3.171875 -6.125 L 3.171875 0 L 2.390625 0 L 2.390625 -6.125 L 0.25 -6.125 L 0.25 -6.796875 Z M 5.3125 -6.796875 "/></g></g><g style="fill:#070748;fill-opacity:1;"><g transform="translate(315.357439, 108.321764)"><path style="stroke:none" d="M 1.03125 0 L 1.03125 -6.796875 L 3.5 -6.796875 C 3.957031 -6.796875 4.335938 -6.722656 4.640625 -6.578125 C 4.953125 -6.429688 5.1875 -6.21875 5.34375 -5.9375 C 5.5 -5.664062 5.578125 -5.34375 5.578125 -4.96875 C 5.578125 -4.539062 5.472656 -4.191406 5.265625 -3.921875 C 5.054688 -3.648438 4.726562 -3.441406 4.28125 -3.296875 L 4.28125 -3.203125 C 4.5 -3.117188 4.675781 -2.984375 4.8125 -2.796875 C 4.957031 -2.609375 5.085938 -2.332031 5.203125 -1.96875 L 5.828125 0 L 5 0 L 4.328125 -2.078125 C 4.242188 -2.328125 4.148438 -2.519531 4.046875 -2.65625 C 3.941406 -2.789062 3.804688 -2.890625 3.640625 -2.953125 C 3.484375 -3.015625 3.28125 -3.046875 3.03125 -3.046875 L 1.828125 -3.046875 L 1.828125 0 Z M 3.484375 -3.734375 C 3.910156 -3.734375 4.226562 -3.832031 4.4375 -4.03125 C 4.644531 -4.226562 4.75 -4.523438 4.75 -4.921875 C 4.75 -5.328125 4.644531 -5.628906 4.4375 -5.828125 C 4.226562 -6.023438 3.910156 -6.125 3.484375 -6.125 L 1.828125 -6.125 L 1.828125 -3.734375 Z M 3.484375 -3.734375 "/></g></g><g style="fill:#070748;fill-opacity:1;"><g transform="translate(321.986681, 108.321764)"><path style="stroke:none" d="M 3.734375 0.09375 C 3.140625 0.09375 2.613281 -0.03125 2.15625 -0.28125 C 1.695312 -0.539062 1.332031 -0.929688 1.0625 -1.453125 C 0.800781 -1.972656 0.671875 -2.625 0.671875 -3.40625 C 0.671875 -4.175781 0.800781 -4.820312 1.0625 -5.34375 C 1.332031 -5.875 1.695312 -6.265625 2.15625 -6.515625 C 2.613281 -6.773438 3.140625 -6.90625 3.734375 -6.90625 C 4.316406 -6.90625 4.835938 -6.773438 5.296875 -6.515625 C 5.765625 -6.265625 6.128906 -5.875 6.390625 -5.34375 C 6.648438 -4.820312 6.78125 -4.175781 6.78125 -3.40625 C 6.78125 -2.625 6.648438 -1.972656 6.390625 -1.453125 C 6.128906 -0.929688 5.765625 -0.539062 5.296875 -0.28125 C 4.835938 -0.03125 4.316406 0.09375 3.734375 0.09375 Z M 3.734375 -0.640625 C 4.441406 -0.640625 4.984375 -0.859375 5.359375 -1.296875 C 5.734375 -1.742188 5.921875 -2.445312 5.921875 -3.40625 C 5.921875 -4.351562 5.734375 -5.046875 5.359375 -5.484375 C 4.984375 -5.929688 4.441406 -6.15625 3.734375 -6.15625 C 2.265625 -6.15625 1.53125 -5.238281 1.53125 -3.40625 C 1.53125 -1.5625 2.265625 -0.640625 3.734375 -0.640625 Z M 3.734375 -0.640625 "/></g></g></g></svg>